<svg width="167" height="42" viewBox="0 0 167 42" fill="none" xmlns="http://www.w3.org/2000/svg">
    <path d="M81.2284 29.7151C90.4132 29.5494 95.1331 29.6046 100.427 29.8255C115.926 30.4883 143.162 33.9127 159.745 40.0988C159.338 40.0988 158.275 40.1176 156.983 40.1403H156.969C154.417 40.1855 150.979 40.2459 149.923 40.2092C132.446 34.5756 108.783 29.7151 80.6544 30.5436C62.7576 31.0893 57.3128 32.2281 22.7995 39.4462L22.7969 39.4466L21.5275 39.7121C15.0854 41.0377 9.40873 39.1598 6.09201 37.1715C-0.0311623 33.4709 -0.924131 27.0086 0.734232 21.8721C2.58394 16.0174 7.87793 14.1947 11.0671 13.6977L11.0697 13.6973C11.898 13.587 12.7265 13.4767 13.6822 13.4767C16.4886 13.4767 20.0605 14.25 24.7166 17.1773C26.1126 18.0455 27.3974 18.8787 28.5968 19.6565C33.4256 22.7876 36.8689 25.0203 40.5986 25.0203C45.9564 25.0203 49.2731 22.7557 50.485 20.0494C52.5523 15.4925 46.9284 14.7187 45.2165 14.4831L45.1272 14.4709C44.9359 14.4157 44.5532 14.4157 44.0429 14.4157C43.3953 14.4157 42.5244 14.4508 41.5218 14.4912L41.5136 14.4916C40.7411 14.5229 39.8906 14.5573 39.004 14.5813C37.0268 14.6919 34.8582 14.747 33.0084 14.747C32.0517 14.747 31.2225 14.747 30.5209 14.6919C26.8853 14.4157 23.7599 12.9243 23.1859 9.8314C22.4842 5.79941 27.9696 2.43017 31.669 1.21509C34.4755 0.276162 36.8992 0 38.8127 0C40.0884 0 41.1727 0.110438 42.0019 0.276162C44.9997 0.883773 48.2526 2.48546 50.6126 3.70055C50.875 3.79143 50.8351 3.84497 50.7772 3.92264C50.7647 3.93936 50.7514 3.95716 50.7401 3.97671C50.7142 4.02161 50.3834 4.49438 49.9782 5.0734C49.3854 5.92063 48.6334 6.99548 48.4439 7.29066C48.3164 7.51167 48.1888 7.6221 48.0612 7.6221C47.8699 7.6221 47.6785 7.45638 47.4872 7.12493C46.2932 4.74694 44.5405 4.0142 42.2813 3.06947C42.1267 3.00488 41.9698 2.93921 41.8105 2.87206C40.2797 2.2093 38.2387 1.60169 35.9425 1.60169C34.5392 1.60169 33.0722 1.8227 31.5414 2.37502C27.5231 3.86627 26.1199 5.74412 26.3112 7.51167C26.4388 8.78191 27.5231 9.66568 28.8625 10.3284C29.8831 10.8256 33.0722 11.2122 36.5165 11.2122C37.6008 11.2122 38.6851 11.2122 39.7694 11.1018C40.2495 11.0731 40.7295 11.0407 41.2073 11.0085C42.5706 10.9164 43.9158 10.8256 45.191 10.8256C47.1683 10.8256 49.018 10.9912 50.7401 11.5435C54.0568 12.593 54.4395 14.9128 54.2482 17.0116C54.1206 18.6133 52.6536 22.1483 46.9132 24.7993C43.7878 26.2354 40.9813 26.7325 38.6214 26.7325C36.7079 26.7325 34.8582 26.3458 32.8809 25.7935C29.7161 24.9145 22.1907 20.2111 19.5686 18.5722C19.3899 18.4605 19.234 18.363 19.1037 18.282C17.7005 17.3982 14.4476 15.7965 11.0671 15.7965C9.53629 15.7965 7.87793 16.1278 6.41093 17.0116C1.7161 19.8684 1.5018 25.0749 1.43687 26.6522L1.43584 26.6773L1.42965 26.8197C1.35804 28.4297 1.20807 31.8015 6.28335 35.0173C8.57955 36.5087 13.746 37.2266 17.3816 37.2266C19.0915 37.2266 22.1021 36.6419 26.4511 35.7971L26.4528 35.7967C36.8669 33.7738 54.9538 30.2605 81.2284 29.7151Z" fill="#D1A440"/>
    <path d="M42.3208 38.0551L41.4916 36.5639L40.5986 38.0551L38.6851 38.2761L40.0884 39.4359L39.7694 41.0377L41.4278 40.2644L43.1499 41.0377L42.831 39.4359L44.2343 38.2761L42.3208 38.0551Z" fill="#D1A440"/>
    <path d="M48.0612 36.5639L48.8904 38.0551L50.8039 38.2761L49.4645 39.4359L49.7834 41.0377L48.0612 40.2644L46.3391 41.0377L46.658 39.4359L45.3186 38.2761L47.2321 38.0551L48.0612 36.5639Z" fill="#D1A440"/>
    <path d="M55.5239 38.0551L54.6309 36.5639L53.8018 38.0551L51.8883 38.2761L53.2915 39.4359L52.9088 41.0377L54.6309 40.2644L56.3531 41.0377L56.0342 39.4359L57.4374 38.2761L55.5239 38.0551Z" fill="#D1A440"/>
    <path d="M61.2643 36.5639L62.0935 38.0551L64.007 38.2761L62.6038 39.4359L62.9227 41.0377L61.2005 40.2644L59.5422 41.0377L59.8611 39.4359L58.4579 38.2761L60.3714 38.0551L61.2643 36.5639Z" fill="#D1A440"/>
    <path d="M68.6631 38.0551L67.834 36.5639L67.0048 38.0551L65.0913 38.2761L66.4307 39.4359L66.1118 41.0377L67.834 40.2644L69.5561 41.0377L69.2372 39.4359L70.5766 38.2761L68.6631 38.0551Z" fill="#D1A440"/>
    <path fill-rule="evenodd" clip-rule="evenodd" d="M96.9828 16.9565L96.8668 16.7914C96.0458 15.6238 95.5796 14.9608 95.5796 14.8023C95.5796 14.5814 95.7709 14.1948 96.2174 13.753C96.6639 13.3111 96.7915 13.1453 96.8553 13.0349C96.9828 12.7587 96.6639 12.4826 96.2812 12.4826C96.0261 12.4826 95.6434 12.7587 95.2607 13.3664C94.7504 14.0844 93.985 14.8576 93.0283 15.6861C92.5568 16.0651 92.0854 16.4288 91.6233 16.7852L91.6218 16.7864L91.6203 16.7876L91.6034 16.8006L91.572 16.8249L91.5652 16.8301L91.5419 16.8479L91.477 16.8981L91.2404 17.0811L91.0564 17.2239C90.967 17.2933 90.8782 17.3626 90.7899 17.4318C90.7085 17.4956 90.6276 17.5592 90.5472 17.6229L90.4132 17.7297C90.3938 17.7464 90.3687 17.7631 90.3412 17.7815C90.325 17.7922 90.3079 17.8036 90.2908 17.8157C90.2413 17.8509 90.1911 17.8934 90.158 17.9507C90.1473 17.9507 90.1384 17.9522 90.1307 17.955C90.1222 17.9582 90.1151 17.963 90.1087 17.9688C90.1039 17.9732 90.0995 17.9783 90.0951 17.984C90.091 17.9892 90.087 17.9949 90.0827 18.0008L90.0808 18.0035L90.0746 18.0122L90.0666 18.0228C90.0569 18.0351 90.0455 18.048 90.0305 18.0611L89.5202 18.503C88.4359 19.3315 85.6932 21.5408 84.6089 22.4244C83.4608 23.4186 82.2489 24.1918 81.6749 24.1918C81.6749 24.1918 81.6111 24.1918 81.4835 24.1367C81.2284 24.0814 81.1008 23.7501 81.0371 23.3082C81.0371 22.3693 81.2922 21.4855 81.7387 20.7675L88.2445 10.1629H91.625L91.8802 9.27908H89.1375L92.1991 4.19772L88.0532 4.36344L83.3332 11.7645C82.6537 12.803 82.0743 13.733 81.5794 14.5274C81.2847 15.0005 81.02 15.4254 80.7819 15.7965L80.6913 15.8698C79.7531 16.6285 78.6431 17.5262 77.5928 18.0611C77.4014 18.1716 76.062 18.8896 75.8069 18.8343C76.3809 17.4535 76.6998 16.5146 76.6998 16.0175C76.6998 14.5814 75.8069 13.9187 74.0847 13.9187C71.8523 13.9187 69.5561 15.1891 67.1962 17.785C67.0367 17.9782 66.8772 18.1578 66.7178 18.3373C66.6475 18.4163 66.5773 18.4955 66.5071 18.5757C66.4179 18.6776 66.3286 18.7815 66.2394 18.8896C65.4124 19.5342 64.5259 20.2715 63.6724 20.9813C62.5512 21.9139 61.4871 22.7989 60.6903 23.3634C59.4852 24.1982 58.9632 24.1951 58.4789 24.1921L58.3941 24.1918C58.3941 24.1918 58.3718 24.1918 58.3272 24.1804C58.3222 24.1792 58.317 24.1778 58.3115 24.1762L58.2941 24.1709C58.2685 24.163 58.2381 24.1519 58.2027 24.1367C57.9476 24.0262 57.82 23.7501 57.7563 23.3082C57.7563 22.7559 58.0114 21.9274 58.3941 20.8227C58.8406 19.6077 59.2233 18.8896 59.606 18.6134C60.5724 17.9052 61.4089 17.3098 62.1028 16.8158L62.1116 16.8094C62.3747 16.6221 62.6173 16.4495 62.8385 16.2909C63.0318 16.1523 63.2088 16.0244 63.3692 15.907C68.2167 12.2617 71.8523 8.56116 74.4036 4.75004C74.9777 3.86641 75.2328 3.2588 75.2966 2.37502C75.3604 1.49138 74.595 1.0495 73.2555 1.0495C70.4491 1.0495 66.941 3.36923 62.8589 8.00884C59.606 11.7645 57.1184 15.5204 55.3963 19.3866C54.5033 21.4855 53.9931 23.2529 53.9931 24.6337C53.9931 25.1861 54.1844 25.6832 54.6309 26.125C55.0774 26.5669 55.5876 26.7326 56.2255 26.7326C57.246 26.7326 58.5217 26.5117 61.0092 24.3024C62.1573 23.3082 63.6243 21.9825 64.6448 21.0436C64.007 22.2036 63.7519 23.3082 63.6881 24.3024C63.6881 25.9041 64.7086 26.7326 66.7497 26.7326C68.2167 26.7326 69.875 25.8488 71.7885 24.0262C73.128 22.7006 74.276 21.3198 75.2328 19.7181C76.7636 19.4419 78.4857 18.3373 79.5701 17.5639C79.4425 17.7297 79.3787 17.8954 79.3149 18.0058C77.9117 20.657 77.2101 22.8663 77.2101 24.7442C77.2101 25.2965 77.4014 25.7937 77.8479 26.2355C78.2944 26.6773 78.8047 26.843 79.4425 26.843C80.463 26.843 82.0576 25.7937 84.4813 23.5844C85.0069 23.0989 85.9942 22.2969 86.9995 21.4804C87.8244 20.8103 88.6613 20.1304 89.2651 19.6077C89.6478 19.3315 90.2856 18.8343 91.1148 18.1716L91.5157 17.8532L91.5233 17.8471C92.8059 16.8284 93.568 16.223 93.8574 16.0727V17.1773C93.8574 19 93.6023 20.7123 93.0283 22.314C92.518 23.6948 91.8802 24.689 91.1148 25.1861C90.6045 25.5175 90.0943 25.6832 89.4564 25.6832C88.8186 25.6832 88.3083 25.4622 87.7981 25.0203C87.9894 25.0756 88.1808 25.0756 88.4359 25.0756C88.8186 25.0756 89.2013 24.9099 89.5202 24.6337C89.8391 24.3024 89.9667 23.971 89.9667 23.6395C89.9667 22.5902 89.3926 22.0378 88.2445 22.0378C87.6067 22.0378 87.0964 22.2036 86.7137 22.5902C86.3311 22.9768 86.1397 23.4186 86.0759 23.9157C86.0759 24.7994 86.5862 25.5175 87.5429 26.0698C88.3721 26.5669 89.3926 26.7879 90.477 26.7879H90.7959C92.518 26.7326 94.1126 26.0145 95.6434 24.689C97.2379 23.3082 98.0671 21.817 98.0671 20.2151C98.3223 19.3315 97.8758 18.2268 96.9828 16.9565ZM65.7929 8.50588C69.1734 4.25301 71.7247 2.15415 73.5107 2.15415C73.702 2.15415 74.1485 2.15415 74.1485 2.81691C73.8296 4.52917 71.8523 7.12507 68.2167 10.6047C64.9637 13.8082 62.2211 16.0175 60.0524 17.2326C61.0092 14.968 62.9227 12.096 65.7929 8.50588ZM69.0459 23.971C68.5356 23.971 68.2167 23.7501 68.2805 23.3082C68.408 21.7617 69.0459 20.657 69.1096 20.6017C69.938 19.1159 70.7664 18.2004 71.2383 17.6788C71.2751 17.6382 71.3098 17.5999 71.342 17.5639C71.9161 18.6686 72.9366 19.2762 74.4036 19.3866C72.4901 22.4797 70.7042 23.971 69.0459 23.971ZM75.4242 17.4535C75.2328 18.1163 75.0415 18.503 74.7225 18.5582C74.6907 18.5582 74.6588 18.572 74.6269 18.5858L74.609 18.5935C74.6022 18.5963 74.5953 18.599 74.5885 18.6014C74.5694 18.6085 74.5503 18.6134 74.5312 18.6134C74.0209 18.6134 73.5107 18.4477 72.9366 18.0611C72.4264 17.6745 72.1712 17.2878 72.1712 16.846C72.1712 16.4041 72.4901 16.0175 73.0642 15.5757C73.6382 15.1891 74.2123 14.968 74.7225 14.968C75.4242 14.968 75.7431 15.3546 75.7431 16.0727C75.7019 16.3224 75.6341 16.5951 75.5569 16.9058C75.5145 17.0761 75.4693 17.2578 75.4242 17.4535Z" fill="#D1A440"/>
    <path d="M79.3787 40.9272V37.1162H78.1031V40.9272H79.3787Z" fill="#D1A440"/>
    <path d="M84.4813 37.1162V37.8342H81.7387V40.9272H80.463V37.1162H84.4813Z" fill="#D1A440"/>
    <path fill-rule="evenodd" clip-rule="evenodd" d="M89.6478 38.3313C89.6478 37.5028 88.7548 37.1162 87.543 37.1162V37.0609H85.0554V40.9272H86.3311V39.5464H87.6068C88.7548 39.5464 89.6478 39.1598 89.6478 38.3313ZM88.4359 38.3313C88.4359 38.7732 88.0532 38.8836 87.4792 38.8836H86.3311V37.7789H87.4792C87.9894 37.7789 88.4359 37.9447 88.4359 38.3313Z" fill="#D1A440"/>
    <path fill-rule="evenodd" clip-rule="evenodd" d="M93.0283 37.0057C94.6867 37.0057 95.8347 37.8342 95.8347 39.0493C95.8347 40.2644 94.6867 41.0377 93.0283 41.0377C91.3062 41.0377 90.2218 40.2092 90.2218 39.0493C90.2218 37.8342 91.3062 37.0057 93.0283 37.0057ZM93.0283 40.3197C93.9851 40.3197 94.5591 39.8226 94.5591 38.9942C94.5591 38.1657 93.9851 37.6685 93.0283 37.6685C92.0716 37.6685 91.4975 38.1657 91.4975 38.9942C91.4337 39.8226 92.0716 40.3197 93.0283 40.3197Z" fill="#D1A440"/>
    <path fill-rule="evenodd" clip-rule="evenodd" d="M101.448 39.8225C101.448 39.2702 101.001 38.994 100.427 38.8836C100.937 38.7179 101.192 38.4417 101.192 38.0551C101.192 37.3923 100.363 37.1162 99.3428 37.1162H96.6639V40.9824H99.5341C100.555 40.9824 101.448 40.5958 101.448 39.8225ZM100.236 39.7674C100.236 40.2092 99.6617 40.2644 99.1515 40.2644V40.3197H97.8758V39.2702H99.0877C99.6617 39.2702 100.236 39.3255 100.236 39.7674ZM97.9396 38.6627V37.7789H99.0877C99.5979 37.7789 100.044 37.8342 100.044 38.2208C100.044 38.6074 99.5341 38.6627 99.0877 38.6627H97.9396Z" fill="#D1A440"/>
    <path d="M103.616 37.1162V40.9272H102.341V37.1162H103.616Z" fill="#D1A440"/>
    <path d="M109.803 38.6074L112.036 37.1162H110.441L108.209 38.7179V37.1162H106.997L106.933 40.9272H108.209V39.7121L108.91 39.215L110.632 40.9272H112.227L109.803 38.6074Z" fill="#D1A440"/>
    <path d="M117.457 37.1715V40.9824H116.182V37.8342H114.651L114.587 39.4912C114.523 40.5958 113.949 41.0377 112.992 41.0377C112.737 41.0377 112.482 41.0377 112.291 40.9824V40.3197C112.418 40.3748 112.546 40.3748 112.737 40.3748C113.056 40.3748 113.375 40.2644 113.375 39.4912L113.503 37.1715H117.457Z" fill="#D1A440"/>
    <path d="M121.412 39.9331L123.325 37.1162H121.986L120.71 39.1598L119.434 37.1162H118.031L119.69 39.4912C119.817 39.6569 119.945 39.8225 119.945 39.9882C119.945 40.154 119.753 40.3197 119.371 40.3197C119.179 40.3197 118.924 40.2644 118.797 40.2092V40.9272C118.924 40.9824 119.179 41.0377 119.498 41.0377C120.455 41.0377 120.901 40.7063 121.412 39.9331Z" fill="#D1A440"/>
    <path fill-rule="evenodd" clip-rule="evenodd" d="M126.642 38.497C127.79 38.497 128.683 38.8836 128.683 39.7121C128.683 40.5406 127.79 40.9272 126.578 40.9272H123.899V37.0609H128.109V37.7789H125.111V38.4417H126.642V38.497ZM126.514 40.2644C127.088 40.2644 127.471 40.0987 127.471 39.7121C127.471 39.3255 127.025 39.1598 126.514 39.1598H125.175V40.2644H126.514Z" fill="#D1A440"/>
    <path d="M134.423 40.9272V37.1162H133.02L130.852 39.7674H130.788V37.1162H129.576V40.9272H130.979L133.148 38.2761V40.9272H134.423Z" fill="#D1A440"/>
    <path d="M135.89 11.9303C136.082 12.2616 136.401 12.593 137.421 12.593C138.314 12.593 138.888 12.372 139.207 12.1511C139.526 11.875 139.845 11.5988 139.845 10.8256C139.845 9.8314 139.08 9.33423 138.187 9.33423L138.142 9.33396C138.102 9.33369 138.064 9.33275 138.026 9.33194C137.721 9.3252 137.456 9.31926 136.911 9.55524C136.273 9.88655 136.082 10.1627 135.89 10.4942C135.699 10.8808 135.763 11.5435 135.89 11.9303Z" fill="#D1A440"/>
    <path fill-rule="evenodd" clip-rule="evenodd" d="M159.337 24.5562C161.199 24.1517 163.125 23.7335 164.274 23.5842C165.932 23.4185 166.825 23.3634 166.57 23.6395C166.231 23.9039 165.873 24.2622 165.431 24.706C165.041 25.0962 164.586 25.5527 164.019 26.0697C163.918 26.1572 163.721 26.1227 163.349 26.0576C162.546 25.9172 160.929 25.6344 157.704 26.125C153.877 32.2557 150.497 34.9622 147.053 34.9622C146.096 34.9622 145.33 34.7964 144.629 34.4098C143.863 33.968 143.481 33.3052 143.544 32.5319C143.736 29.7702 147.754 27.5058 154.962 25.5174L156.237 23.5842L155.918 23.8604C154.898 24.7993 153.686 25.5727 152.283 25.5727C151.581 25.5727 150.688 25.4069 150.178 24.9099C149.668 24.4127 149.54 23.9708 149.54 23.3634C149.54 22.59 150.242 21.0436 151.772 18.8343L152.227 18.1329C153.397 16.3286 154.005 15.3917 154.005 15.2442C154.005 15.0785 153.877 15.0232 153.75 15.0232C153.565 15.0232 153.348 15.2249 153.025 15.5241C152.901 15.6393 152.761 15.7689 152.602 15.907C152.457 16.0325 151.27 17.3451 149.912 18.8485C148.281 20.6523 146.403 22.7307 145.777 23.3634C143.481 25.6831 141.822 26.7325 140.802 26.7325C140.164 26.7325 139.526 26.6773 139.08 26.2354C138.633 25.7935 138.378 25.0203 138.442 24.1918C138.506 23.0319 138.825 21.9273 139.335 20.6569C137.995 21.8168 136.72 22.9215 135.061 24.3023C133.212 25.904 131.681 26.6773 130.469 26.6773C129.257 26.6773 128.619 25.9592 128.619 24.5232C128.874 23.6947 129.193 22.811 129.704 21.8721C129.767 21.8168 131.234 18.9999 131.234 18.9999C131.298 18.8895 131.489 18.5029 131.745 18.061C129.512 20.1598 125.175 23.5291 120.009 25.2965C114.842 27.0639 110.186 27.3401 107.571 24.7442C104.956 22.1483 107.826 16.3489 109.739 13.8081C114.013 8.11914 119.626 3.47967 128.874 0.7732C136.911 -1.54654 139.016 2.04357 137.166 5.24708C136.209 6.84877 133.977 8.34015 132.638 8.61632C132.319 8.72675 131.745 8.00871 132.893 7.67726C136.018 6.79362 137.358 3.70055 136.656 2.37502C135.508 0.220876 129.895 1.65697 126.578 3.92156C118.797 9.16864 115.671 13.8081 113.822 17.2325C111.525 21.5407 112.036 26.622 120.391 23.6395C127.79 20.9883 132.255 16.625 133.084 15.7412C133.275 15.4651 133.403 15.2442 133.531 14.968H137.676C135.572 18.1714 133.977 21.0436 132.956 23.5842C132.829 23.8052 132.956 23.9708 133.212 23.9708C133.339 23.9708 133.403 23.9708 133.531 23.9157C134.423 23.4185 139.207 19.4971 140.674 18.1714C140.674 18.1306 140.709 18.0897 140.727 18.0488C140.734 18.0346 140.738 18.0201 140.738 18.0058C141.057 17.3982 142.333 15.2994 144.629 11.7093L149.349 4.30816L153.495 4.14243L150.433 9.22379H153.303L153.048 10.1076H149.668L143.417 20.3256L143.336 20.4477C142.83 21.2122 142.141 22.2518 142.141 23.1423C142.205 23.5291 142.396 23.8604 142.715 23.8604C142.779 23.9157 143.417 23.8052 143.927 23.4185C145.047 22.6595 148.064 19.3881 149.883 17.4168C150.445 16.8065 150.893 16.3208 151.135 16.0727C151.517 15.5755 152.283 14.8575 153.048 14.3052C154.579 13.2005 155.281 12.9796 155.791 12.8692C155.982 12.8139 156.237 12.8139 156.429 12.8139C157.704 12.8139 158.342 13.8081 157.768 15.0232C157.13 15.907 156.429 17.1773 155.599 18.779C155.518 18.935 155.438 19.087 155.36 19.2348C154.528 20.8146 153.941 21.9289 153.941 22.5349C153.941 22.9768 154.324 23.1976 154.77 23.1976C155.344 23.1976 156.046 22.5349 156.11 22.4244C156.556 22.0377 157.13 21.4302 157.449 20.933C158.023 20.2703 158.661 19.4971 159.49 18.3371C159.799 17.9214 160.587 16.8029 161.29 15.8061C161.893 14.9492 162.434 14.1822 162.552 14.029C162.679 13.8081 163.381 12.8692 163.445 12.8692C163.764 12.8139 164.019 12.8139 164.402 12.8139C165.167 12.8139 165.932 12.8692 166.379 12.9243C165.79 13.759 165.246 14.6328 164.331 16.1011C164.156 16.3816 163.968 16.6838 163.764 17.0116C163.35 17.6644 162.96 18.2846 162.589 18.8741C161.36 20.8287 160.343 22.4474 159.363 23.8052C159.326 23.8584 159.287 23.9155 159.246 23.9749C159.076 24.2239 158.879 24.5105 158.725 24.6889L159.337 24.5562ZM144.884 32.808C144.884 33.8575 145.458 34.3546 146.734 34.3546C148.456 34.3546 151.007 31.6482 154.005 26.6773C150.816 27.4505 148.966 28.4447 147.371 29.3285C145.713 30.4883 144.884 31.6482 144.884 32.808Z" fill="#D1A440"/>
</svg>
