<svg width="228" height="56" viewBox="0 0 228 56" fill="none" xmlns="http://www.w3.org/2000/svg">
    <path d="M110.844 40.549C123.377 40.3229 129.818 40.3983 137.042 40.6997C158.193 41.6042 195.358 46.2771 217.988 54.7186C217.432 54.7186 215.981 54.7442 214.218 54.7753H214.199C210.717 54.8369 206.026 54.9194 204.584 54.8693C180.735 47.1816 148.444 40.549 110.061 41.6796C85.6387 42.4243 78.2087 43.9782 31.1121 53.828L31.1085 53.8286L29.3763 54.1909C20.5855 55.9999 12.8391 53.4372 8.31313 50.724C-0.0425239 45.6742 -1.26106 36.8558 1.00193 29.8466C3.52603 21.8573 10.7502 19.37 15.1021 18.6918L15.1057 18.6912C16.236 18.5407 17.3665 18.3902 18.6706 18.3902C22.5003 18.3902 27.3744 19.4455 33.7282 23.4401C35.6331 24.6248 37.3864 25.7618 39.0231 26.8231C45.6124 31.0958 50.3111 34.1426 55.4007 34.1426C62.7118 34.1426 67.2378 31.0524 68.8916 27.3593C71.7126 21.1409 64.0382 20.0851 61.7022 19.7636L61.5804 19.7469C61.3193 19.6716 60.797 19.6716 60.1007 19.6716C59.217 19.6716 58.0286 19.7195 56.6605 19.7747L56.6493 19.7752C55.595 19.8179 54.4345 19.8648 53.2247 19.8976C50.5265 20.0485 47.5673 20.1237 45.0431 20.1237C43.7376 20.1237 42.6061 20.1237 41.6487 20.0485C36.6875 19.6716 32.4226 17.6365 31.6393 13.4159C30.6819 7.91384 38.1671 3.3162 43.2153 1.6581C47.045 0.37685 50.3525 0 52.9636 0C54.7044 0 56.184 0.150703 57.3155 0.37685C61.4063 1.20599 65.8453 3.39165 69.0656 5.04975C69.4238 5.17377 69.3693 5.24682 69.2903 5.35281C69.2733 5.37563 69.2551 5.39992 69.2397 5.4266C69.2044 5.48787 68.753 6.13301 68.2 6.92314C67.3911 8.07926 66.3649 9.546 66.1064 9.94879C65.9323 10.2504 65.7582 10.4011 65.5841 10.4011C65.323 10.4011 65.0619 10.1749 64.8008 9.72264C63.1715 6.47765 60.7797 5.47775 57.6968 4.18859C57.4859 4.10045 57.2718 4.01083 57.0544 3.9192C54.9655 3.0148 52.1803 2.18565 49.0469 2.18565C47.1321 2.18565 45.1302 2.48724 43.0413 3.24094C37.5579 5.27589 35.6431 7.8384 35.9042 10.2504C36.0782 11.9837 37.5579 13.1897 39.3857 14.0941C40.7783 14.7726 45.1302 15.3001 49.8302 15.3001C51.3099 15.3001 52.7895 15.3001 54.2692 15.1494C54.9242 15.1102 55.5793 15.0661 56.2313 15.0221C58.0916 14.8964 59.9273 14.7726 61.6674 14.7726C64.3656 14.7726 66.8897 14.9985 69.2397 15.7522C73.7657 17.1844 74.2879 20.3499 74.0268 23.214C73.8527 25.3996 71.8509 30.2234 64.0174 33.841C59.7526 35.8007 55.9229 36.479 52.7025 36.479C50.0914 36.479 47.5673 35.9514 44.8691 35.1977C40.5504 33.9982 30.2814 27.5799 26.7032 25.3435C26.4593 25.1911 26.2466 25.0581 26.0689 24.9475C24.154 23.7415 19.7151 21.5559 15.1021 21.5559C13.0132 21.5559 10.7502 22.008 8.74832 23.214C2.34178 27.1124 2.04934 34.2171 1.96075 36.3695L1.95934 36.4037L1.95089 36.598C1.85317 38.7951 1.64853 43.3962 8.57423 47.7844C11.7076 49.8196 18.7577 50.7992 23.7188 50.7992C26.0521 50.7992 30.1604 50.0014 36.095 48.8486L36.0973 48.848C50.3083 46.0875 74.9897 41.2934 110.844 40.549Z" fill="#D1A440"/>
    <path d="M57.7507 51.9298L56.6192 49.8948L55.4007 51.9298L52.7895 52.2314L54.7044 53.814L54.2692 55.9999L56.5321 54.9446L58.8822 55.9999L58.447 53.814L60.3618 52.2314L57.7507 51.9298Z" fill="#D1A440"/>
    <path d="M65.5841 49.8948L66.7156 51.9298L69.3267 52.2314L67.499 53.814L67.9342 55.9999L65.5841 54.9446L63.2341 55.9999L63.6693 53.814L61.8415 52.2314L64.4526 51.9298L65.5841 49.8948Z" fill="#D1A440"/>
    <path d="M75.7676 51.9298L74.5491 49.8948L73.4176 51.9298L70.8064 52.2314L72.7213 53.814L72.199 55.9999L74.5491 54.9446L76.8991 55.9999L76.4639 53.814L78.3788 52.2314L75.7676 51.9298Z" fill="#D1A440"/>
    <path d="M83.601 49.8948L84.7325 51.9298L87.3436 52.2314L85.4288 53.814L85.864 55.9999L83.5139 54.9446L81.251 55.9999L81.6861 53.814L79.7713 52.2314L82.3824 51.9298L83.601 49.8948Z" fill="#D1A440"/>
    <path d="M93.6974 51.9298L92.5659 49.8948L91.4344 51.9298L88.8233 52.2314L90.6511 53.814L90.2159 55.9999L92.5659 54.9446L94.9159 55.9999L94.4807 53.814L96.3085 52.2314L93.6974 51.9298Z" fill="#D1A440"/>
    <path fill-rule="evenodd" clip-rule="evenodd" d="M132.342 23.1387L132.184 22.9135C131.064 21.3202 130.427 20.4154 130.427 20.1992C130.427 19.8978 130.689 19.3702 131.298 18.7672C131.907 18.1642 132.081 17.9381 132.168 17.7874C132.342 17.4105 131.907 17.0337 131.385 17.0337C131.037 17.0337 130.514 17.4105 129.992 18.2397C129.296 19.2195 128.251 20.2746 126.946 21.4052C126.303 21.9224 125.659 22.4187 125.029 22.905L125.027 22.9067L125.025 22.9083L125.002 22.926L124.959 22.9591L124.949 22.9663L124.918 22.9906L124.829 23.059L124.506 23.3087L124.255 23.5036C124.133 23.5984 124.012 23.6929 123.891 23.7873C123.78 23.8744 123.67 23.9612 123.56 24.0481L123.377 24.1938C123.351 24.2166 123.317 24.2394 123.279 24.2645C123.257 24.2792 123.234 24.2947 123.21 24.3112C123.143 24.3592 123.074 24.4172 123.029 24.4954C123.015 24.4954 123.002 24.4974 122.992 24.5013C122.98 24.5057 122.971 24.5121 122.962 24.5201C122.955 24.5261 122.949 24.5331 122.943 24.5409C122.938 24.548 122.932 24.5558 122.926 24.5639L122.924 24.5675L122.915 24.5793L122.904 24.5938C122.891 24.6106 122.876 24.6283 122.855 24.6461L122.159 25.2491C120.679 26.3797 116.937 29.3944 115.457 30.6003C113.89 31.957 112.236 33.0121 111.453 33.0121C111.453 33.0121 111.366 33.0121 111.192 32.9368C110.844 32.8614 110.67 32.4092 110.583 31.8062C110.583 30.525 110.931 29.319 111.54 28.3392L120.418 13.8682H125.031L125.379 12.6622H121.637L125.814 5.72819L120.157 5.95433L113.716 16.0538C112.789 17.4709 111.998 18.74 111.323 19.824C110.921 20.4697 110.559 21.0495 110.235 21.5559L110.111 21.6558C108.831 22.6912 107.316 23.9161 105.883 24.6461C105.622 24.7968 103.794 25.7767 103.446 25.7012C104.229 23.817 104.664 22.5357 104.664 21.8575C104.664 19.8978 103.446 18.9934 101.096 18.9934C98.0493 18.9934 94.9159 20.7269 91.6955 24.2693C91.4779 24.5329 91.2603 24.778 91.0427 25.023C90.9469 25.1308 90.8511 25.2388 90.7552 25.3483C90.6335 25.4874 90.5117 25.6291 90.3899 25.7767C89.2614 26.6562 88.0517 27.6624 86.8871 28.631C85.357 29.9036 83.9049 31.1112 82.8176 31.8815C81.1732 33.0207 80.4608 33.0165 79.8001 33.0124L79.6843 33.0121C79.6843 33.0121 79.6538 33.0121 79.5929 32.9964C79.5862 32.9948 79.5791 32.9929 79.5716 32.9907L79.5478 32.9835C79.5129 32.9727 79.4714 32.9576 79.4232 32.9368C79.075 32.7861 78.9009 32.4092 78.8139 31.8062C78.8139 31.0525 79.1621 29.922 79.6843 28.4146C80.2935 26.7565 80.8158 25.7767 81.338 25.3998C82.6568 24.4334 83.7983 23.6208 84.7452 22.9468L84.7572 22.938C85.1162 22.6824 85.4472 22.4468 85.7491 22.2304C86.0128 22.0413 86.2544 21.8668 86.4732 21.7066C93.0881 16.7323 98.0493 11.6825 101.531 6.48189C102.314 5.27608 102.662 4.44693 102.749 3.24094C102.836 2.03513 101.792 1.43214 99.9641 1.43214C96.1345 1.43214 91.3474 4.59764 85.7769 10.9288C81.338 16.0538 77.9435 21.179 75.5935 26.4549C74.375 29.319 73.6786 31.7308 73.6786 33.6151C73.6786 34.3688 73.9397 35.0472 74.549 35.65C75.1583 36.253 75.8546 36.4791 76.725 36.4791C78.1176 36.4791 79.8583 36.1777 83.2528 33.1629C84.8195 31.8062 86.8214 29.9973 88.214 28.716C87.3436 30.2988 86.9955 31.8062 86.9084 33.1629C86.9084 35.3486 88.301 36.4791 91.0862 36.4791C93.0881 36.4791 95.3511 35.2732 97.9623 32.7861C99.79 30.9771 101.357 29.0929 102.662 26.9072C104.751 26.5304 107.101 25.023 108.581 23.9677C108.407 24.1938 108.32 24.42 108.233 24.5707C106.318 28.1885 105.36 31.2033 105.36 33.7658C105.36 34.5195 105.622 35.1979 106.231 35.8009C106.84 36.4037 107.536 36.6298 108.407 36.6298C109.799 36.6298 111.975 35.1979 115.283 32.1831C116 31.5207 117.347 30.4262 118.719 29.312C119.845 28.3977 120.987 27.4699 121.811 26.7565C122.333 26.3797 123.203 25.7012 124.335 24.7968L124.882 24.3624L124.892 24.3541C126.642 22.9639 127.682 22.1379 128.077 21.9327V23.4401C128.077 25.9274 127.729 28.2639 126.946 30.4496C126.25 32.3338 125.379 33.6905 124.335 34.3688C123.638 34.821 122.942 35.0472 122.072 35.0472C121.201 35.0472 120.505 34.7456 119.809 34.1426C120.07 34.218 120.331 34.218 120.679 34.218C121.201 34.218 121.724 33.9919 122.159 33.6151C122.594 33.1629 122.768 32.7107 122.768 32.2584C122.768 30.8264 121.985 30.0727 120.418 30.0727C119.548 30.0727 118.851 30.2988 118.329 30.8264C117.807 31.354 117.546 31.957 117.459 32.6352C117.459 33.8412 118.155 34.821 119.461 35.5747C120.592 36.253 121.985 36.5546 123.464 36.5546H123.9C126.25 36.4791 128.426 35.4993 130.514 33.6905C132.69 31.8062 133.822 29.7713 133.822 27.5855C134.17 26.3797 133.561 24.8723 132.342 23.1387ZM89.7807 11.6071C94.3937 5.80363 97.8752 2.93954 100.312 2.93954C100.573 2.93954 101.183 2.93954 101.183 3.84394C100.747 6.18048 98.0493 9.72283 93.0881 14.4712C88.6492 18.8427 84.9065 21.8575 81.9473 23.5156C83.2528 20.4253 85.864 16.5061 89.7807 11.6071ZM94.2196 32.7107C93.5233 32.7107 93.0881 32.4092 93.1752 31.8062C93.3492 29.6959 94.2196 28.1885 94.3067 28.113C95.4371 26.0854 96.5675 24.8362 97.2115 24.1244C97.2617 24.0691 97.3089 24.0168 97.353 23.9677C98.1363 25.4751 99.5289 26.3042 101.531 26.4549C98.9197 30.6757 96.4826 32.7107 94.2196 32.7107ZM102.923 23.817C102.662 24.7214 102.401 25.2491 101.966 25.3244C101.922 25.3244 101.879 25.3433 101.835 25.3621L101.811 25.3726C101.802 25.3764 101.792 25.3801 101.783 25.3834C101.757 25.393 101.731 25.3998 101.705 25.3998C101.009 25.3998 100.312 25.1737 99.5289 24.6461C98.8326 24.1186 98.4845 23.5908 98.4845 22.988C98.4845 22.385 98.9197 21.8575 99.703 21.2545C100.486 20.7269 101.27 20.4253 101.966 20.4253C102.923 20.4253 103.359 20.9529 103.359 21.9327C103.302 22.2735 103.21 22.6456 103.105 23.0695C103.047 23.3019 102.985 23.55 102.923 23.817Z" fill="#D1A440"/>
    <path d="M108.32 55.849V50.6485H106.579V55.849H108.32Z" fill="#D1A440"/>
    <path d="M115.283 50.6485V51.6284H111.54V55.849H109.799V50.6485H115.283Z" fill="#D1A440"/>
    <path fill-rule="evenodd" clip-rule="evenodd" d="M122.333 52.3066C122.333 51.1761 121.114 50.6485 119.461 50.6485V50.5731H116.066V55.849H117.807V53.9647H119.548C121.114 53.9647 122.333 53.4372 122.333 52.3066ZM120.679 52.3066C120.679 52.9096 120.157 53.0603 119.374 53.0603H117.807V51.5529H119.374C120.07 51.5529 120.679 51.7791 120.679 52.3066Z" fill="#D1A440"/>
    <path fill-rule="evenodd" clip-rule="evenodd" d="M126.946 50.4978C129.209 50.4978 130.776 51.6284 130.776 53.2865C130.776 54.9446 129.209 55.9999 126.946 55.9999C124.596 55.9999 123.116 54.8693 123.116 53.2865C123.116 51.6284 124.596 50.4978 126.946 50.4978ZM126.946 55.02C128.252 55.02 129.035 54.3418 129.035 53.2112C129.035 52.0807 128.252 51.4022 126.946 51.4022C125.64 51.4022 124.857 52.0807 124.857 53.2112C124.77 54.3418 125.64 55.02 126.946 55.02Z" fill="#D1A440"/>
    <path fill-rule="evenodd" clip-rule="evenodd" d="M138.435 54.3416C138.435 53.5879 137.826 53.211 137.042 53.0603C137.739 52.8342 138.087 52.4573 138.087 51.9298C138.087 51.0254 136.955 50.6485 135.563 50.6485H131.907V55.9244H135.824C137.216 55.9244 138.435 55.3969 138.435 54.3416ZM136.781 54.2663C136.781 54.8693 135.998 54.9446 135.302 54.9446V55.02H133.561V53.5879H135.215C135.998 53.5879 136.781 53.6633 136.781 54.2663ZM133.648 52.7589V51.5529H135.215C135.911 51.5529 136.52 51.6284 136.52 52.1559C136.52 52.6835 135.824 52.7589 135.215 52.7589H133.648Z" fill="#D1A440"/>
    <path d="M141.394 50.6485V55.849H139.653V50.6485H141.394Z" fill="#D1A440"/>
    <path d="M149.837 52.6835L152.883 50.6485H150.707L147.661 52.8342V50.6485H146.007L145.92 55.849H147.661V54.1909L148.618 53.5126L150.968 55.849H153.144L149.837 52.6835Z" fill="#D1A440"/>
    <path d="M160.281 50.724V55.9244H158.541V51.6284H156.452L156.365 53.8895C156.278 55.3969 155.494 55.9999 154.189 55.9999C153.841 55.9999 153.492 55.9999 153.231 55.9244V55.02C153.405 55.0953 153.58 55.0953 153.841 55.0953C154.276 55.0953 154.711 54.9446 154.711 53.8895L154.885 50.724H160.281Z" fill="#D1A440"/>
    <path d="M165.678 54.4925L168.289 50.6485H166.461L164.72 53.4372L162.98 50.6485H161.065L163.328 53.8895C163.502 54.1156 163.676 54.3416 163.676 54.5677C163.676 54.7939 163.415 55.02 162.893 55.02C162.632 55.02 162.283 54.9446 162.109 54.8693V55.849C162.283 55.9244 162.632 55.9999 163.067 55.9999C164.372 55.9999 164.982 55.5476 165.678 54.4925Z" fill="#D1A440"/>
    <path fill-rule="evenodd" clip-rule="evenodd" d="M172.815 52.5328C174.382 52.5328 175.6 53.0603 175.6 54.1909C175.6 55.3214 174.382 55.849 172.728 55.849H169.072V50.5731H174.817V51.5529H170.726V52.4573H172.815V52.5328ZM172.641 54.9446C173.424 54.9446 173.946 54.7184 173.946 54.1909C173.946 53.6633 173.337 53.4372 172.641 53.4372H170.813V54.9446H172.641Z" fill="#D1A440"/>
    <path d="M183.434 55.849V50.6485H181.519L178.559 54.2663H178.472V50.6485H176.819V55.849H178.734L181.693 52.2314V55.849H183.434Z" fill="#D1A440"/>
    <path d="M185.435 16.28C185.697 16.7321 186.132 17.1844 187.524 17.1844C188.743 17.1844 189.526 16.8828 189.961 16.5814C190.397 16.2045 190.832 15.8277 190.832 14.7726C190.832 13.4159 189.787 12.7374 188.569 12.7374L188.508 12.7371C188.454 12.7367 188.401 12.7354 188.349 12.7343C187.934 12.7251 187.572 12.717 186.828 13.039C185.958 13.4911 185.697 13.868 185.435 14.3203C185.174 14.8478 185.261 15.7522 185.435 16.28Z" fill="#D1A440"/>
    <path fill-rule="evenodd" clip-rule="evenodd" d="M217.43 33.5092C219.972 32.9572 222.599 32.3866 224.167 32.1829C226.43 31.9568 227.649 31.8815 227.301 32.2584C226.838 32.6192 226.35 33.1081 225.746 33.7137C225.215 34.2462 224.593 34.8691 223.819 35.5746C223.681 35.694 223.412 35.6469 222.905 35.558C221.809 35.3664 219.603 34.9806 215.202 35.65C209.98 44.016 205.367 47.7092 200.667 47.7092C199.362 47.7092 198.317 47.483 197.36 46.9555C196.315 46.3525 195.793 45.4481 195.88 44.3928C196.141 40.6243 201.625 37.5342 211.46 34.8209L213.201 32.1829L212.765 32.5598C211.373 33.841 209.719 34.8963 207.804 34.8963C206.847 34.8963 205.628 34.6702 204.932 33.9919C204.236 33.3135 204.062 32.7105 204.062 31.8815C204.062 30.8262 205.019 28.716 207.108 25.7012L207.729 24.744C209.325 22.282 210.154 21.0035 210.154 20.8022C210.154 20.576 209.98 20.5006 209.806 20.5006C209.555 20.5006 209.258 20.7759 208.817 21.1842C208.648 21.3413 208.457 21.5181 208.239 21.7066C208.042 21.8779 206.423 23.669 204.569 25.7205C202.344 28.182 199.781 31.0181 198.926 31.8815C195.793 35.047 193.53 36.479 192.137 36.479C191.267 36.479 190.397 36.4037 189.787 35.8007C189.178 35.1977 188.83 34.1426 188.917 33.0121C189.004 31.4292 189.439 29.9218 190.136 28.1883C188.308 29.7711 186.567 31.2785 184.304 33.1628C181.78 35.3484 179.691 36.4037 178.037 36.4037C176.384 36.4037 175.513 35.4239 175.513 33.4642C175.861 32.3336 176.297 31.1278 176.993 29.8466C177.08 29.7711 179.082 25.9272 179.082 25.9272C179.169 25.7765 179.43 25.2489 179.778 24.6459C176.732 27.51 170.813 32.1077 163.763 34.5195C156.713 36.9313 150.359 37.3081 146.791 33.7658C143.222 30.2234 147.139 22.3096 149.75 18.8425C155.581 11.0793 163.241 4.74834 175.861 1.05511C186.828 -2.11039 189.7 2.78865 187.176 7.16014C185.871 9.34579 182.824 11.3809 180.997 11.7578C180.561 11.9085 179.778 10.9286 181.345 10.4763C185.61 9.27054 187.437 5.04975 186.48 3.24094C184.913 0.301406 177.254 2.2611 172.728 5.35134C162.109 12.5115 157.844 18.8425 155.32 23.5154C152.187 29.3943 152.883 36.3283 164.285 32.2584C174.382 28.6406 180.474 22.6864 181.606 21.4804C181.867 21.1036 182.041 20.8022 182.215 20.4253H187.873C185 24.7966 182.824 28.716 181.432 32.1829C181.258 32.4845 181.432 32.7105 181.78 32.7105C181.954 32.7105 182.041 32.7105 182.215 32.6352C183.434 31.9568 189.961 26.6056 191.963 24.7966C191.963 24.7409 192.011 24.6851 192.036 24.6294C192.044 24.6099 192.05 24.5902 192.05 24.5707C192.486 23.7415 194.226 20.8774 197.36 15.9784L203.801 5.87889L209.458 5.65274L205.28 12.5867H209.197L208.849 13.7927H204.236L195.706 27.7362L195.596 27.9029C194.905 28.946 193.965 30.3647 193.965 31.5799C194.052 32.1077 194.313 32.5598 194.749 32.5598C194.836 32.6352 195.706 32.4845 196.402 31.9568C197.931 30.921 202.048 26.4569 204.529 23.7669C205.297 22.9341 205.908 22.2713 206.238 21.9327C206.76 21.2543 207.804 20.2744 208.849 19.5207C210.938 18.0133 211.895 17.7119 212.591 17.5612C212.852 17.4858 213.201 17.4858 213.462 17.4858C215.202 17.4858 216.073 18.8425 215.29 20.5006C214.419 21.7066 213.462 23.4401 212.33 25.6258C212.219 25.8387 212.109 26.046 212.003 26.2477C210.868 28.4036 210.067 29.924 210.067 30.751C210.067 31.354 210.589 31.6554 211.199 31.6554C211.982 31.6554 212.939 30.751 213.027 30.6003C213.636 30.0725 214.419 29.2436 214.854 28.5651C215.638 27.6607 216.508 26.6056 217.64 25.0228C218.061 24.4555 219.136 22.9291 220.095 21.5689C220.919 20.3996 221.656 19.3529 221.817 19.1439C221.991 18.8425 222.949 17.5612 223.036 17.5612C223.471 17.4858 223.819 17.4858 224.341 17.4858C225.386 17.4858 226.43 17.5612 227.04 17.6365C226.236 18.7755 225.493 19.9679 224.245 21.9715C224.007 22.3543 223.75 22.7666 223.471 23.214C222.906 24.1048 222.374 24.951 221.868 25.7555C220.192 28.4227 218.803 30.6315 217.465 32.4845C217.415 32.557 217.362 32.635 217.307 32.716C217.074 33.0559 216.806 33.4469 216.595 33.6903L217.43 33.5092ZM197.708 44.7696C197.708 46.2018 198.491 46.88 200.232 46.88C202.582 46.88 206.064 43.187 210.154 36.4037C205.802 37.4588 203.278 38.8155 201.102 40.0215C198.839 41.6042 197.708 43.187 197.708 44.7696Z" fill="#D1A440"/>
</svg>
