<svg width="127" height="48" viewBox="0 0 127 48" fill="none" xmlns="http://www.w3.org/2000/svg">
    <path d="M15.557 7.2H9.65703V11.12H15.357V13.32H9.65703V19H7.35703V5H15.557V7.2ZM17.7086 5H20.0086V19H17.7086V5ZM31.2063 5H33.5063V19H31.7063L25.1063 9.5V19H22.8063V5H24.6063L31.2063 14.5V5ZM38.5223 18.8C38.229 19.0933 37.8757 19.24 37.4623 19.24C37.049 19.24 36.6957 19.0933 36.4023 18.8C36.109 18.5067 35.9623 18.1533 35.9623 17.74C35.9623 17.3267 36.1023 16.9733 36.3823 16.68C36.6757 16.3867 37.0357 16.24 37.4623 16.24C37.8757 16.24 38.229 16.3867 38.5223 16.68C38.8157 16.9733 38.9623 17.3267 38.9623 17.74C38.9623 18.1533 38.8157 18.5067 38.5223 18.8ZM6.67719 29C7.99719 29 9.09719 29.44 9.97719 30.32C10.8705 31.2 11.3172 32.2933 11.3172 33.6C11.3172 34.8933 10.8705 35.9867 9.97719 36.88C9.09719 37.76 7.99719 38.2 6.67719 38.2H3.81719V43H1.51719V29H6.67719ZM6.67719 36.04C7.35719 36.04 7.91719 35.8133 8.35719 35.36C8.79719 34.8933 9.01719 34.3067 9.01719 33.6C9.01719 32.8933 8.79719 32.3133 8.35719 31.86C7.91719 31.3933 7.35719 31.16 6.67719 31.16H3.81719V36.04H6.67719ZM21.2941 43L18.3341 37.9H15.6141V43H13.3141V29H18.9141C20.1674 29 21.2274 29.44 22.0941 30.32C22.9741 31.1867 23.4141 32.2467 23.4141 33.5C23.4141 34.3933 23.1541 35.2133 22.6341 35.96C22.1274 36.6933 21.4607 37.2267 20.6341 37.56L23.8141 43H21.2941ZM15.6141 31.16V35.84H18.9141C19.5274 35.84 20.0474 35.6133 20.4741 35.16C20.9007 34.7067 21.1141 34.1533 21.1141 33.5C21.1141 32.8467 20.9007 32.2933 20.4741 31.84C20.0474 31.3867 19.5274 31.16 18.9141 31.16H15.6141ZM37.182 41.16C35.782 42.56 34.0687 43.26 32.042 43.26C30.0154 43.26 28.2954 42.56 26.882 41.16C25.482 39.7467 24.782 38.0267 24.782 36C24.782 33.9733 25.482 32.26 26.882 30.86C28.2954 29.4467 30.0154 28.74 32.042 28.74C34.0687 28.74 35.782 29.4467 37.182 30.86C38.5954 32.26 39.302 33.9733 39.302 36C39.302 38.0267 38.5954 39.7467 37.182 41.16ZM28.502 39.6C29.462 40.5467 30.642 41.02 32.042 41.02C33.442 41.02 34.6154 40.5467 35.562 39.6C36.522 38.64 37.002 37.44 37.002 36C37.002 34.56 36.522 33.3667 35.562 32.42C34.6154 31.46 33.442 30.98 32.042 30.98C30.642 30.98 29.462 31.46 28.502 32.42C27.5554 33.3667 27.082 34.56 27.082 36C27.082 37.44 27.5554 38.64 28.502 39.6Z" fill="#73FFD8"/>
    <path d="M62.7 5V19H60.4V7.2H54.7V19H52.4V5H62.7ZM71.0255 8.74C72.3988 8.74 73.5721 9.25333 74.5455 10.28C75.5188 11.2933 76.0055 12.5333 76.0055 14C76.0055 15.48 75.5188 16.7267 74.5455 17.74C73.5721 18.7533 72.3988 19.26 71.0255 19.26C69.5055 19.26 68.3388 18.7 67.5255 17.58V23H65.3655V9H67.5255V10.44C68.3388 9.30667 69.5055 8.74 71.0255 8.74ZM68.4255 16.3C69.0255 16.9 69.7788 17.2 70.6855 17.2C71.5921 17.2 72.3455 16.9 72.9455 16.3C73.5455 15.6867 73.8455 14.92 73.8455 14C73.8455 13.08 73.5455 12.32 72.9455 11.72C72.3455 11.1067 71.5921 10.8 70.6855 10.8C69.7788 10.8 69.0255 11.1067 68.4255 11.72C67.8255 12.32 67.5255 13.08 67.5255 14C67.5255 14.92 67.8255 15.6867 68.4255 16.3ZM82.6831 19.26C81.2165 19.26 79.9698 18.7533 78.9431 17.74C77.9165 16.7267 77.4031 15.48 77.4031 14C77.4031 12.52 77.9165 11.2733 78.9431 10.26C79.9698 9.24667 81.2165 8.74 82.6831 8.74C84.1631 8.74 85.4098 9.24667 86.4231 10.26C87.4498 11.2733 87.9631 12.52 87.9631 14C87.9631 15.48 87.4498 16.7267 86.4231 17.74C85.4098 18.7533 84.1631 19.26 82.6831 19.26ZM80.4631 16.26C81.0631 16.86 81.8031 17.16 82.6831 17.16C83.5631 17.16 84.3031 16.86 84.9031 16.26C85.5031 15.66 85.8031 14.9067 85.8031 14C85.8031 13.0933 85.5031 12.34 84.9031 11.74C84.3031 11.14 83.5631 10.84 82.6831 10.84C81.8031 10.84 81.0631 11.14 80.4631 11.74C79.8631 12.34 79.5631 13.0933 79.5631 14C79.5631 14.9067 79.8631 15.66 80.4631 16.26ZM62.54 34.54C63.4467 35.4867 63.9 36.64 63.9 38C63.9 39.36 63.4467 40.5133 62.54 41.46C61.6333 42.4067 60.4067 42.98 58.86 43.18V47H56.74V43.18C55.1933 42.98 53.9667 42.4067 53.06 41.46C52.1533 40.5133 51.7 39.36 51.7 38C51.7 36.64 52.1533 35.4867 53.06 34.54C53.9667 33.5933 55.1933 33.02 56.74 32.82V29H58.86V32.82C60.4067 33.02 61.6333 33.5933 62.54 34.54ZM58.86 41.12C59.78 40.9467 60.4933 40.5867 61 40.04C61.5067 39.48 61.76 38.8 61.76 38C61.76 37.2 61.5067 36.5267 61 35.98C60.4933 35.42 59.78 35.0533 58.86 34.88V41.12ZM54.6 35.98C54.0933 36.54 53.84 37.2133 53.84 38C53.84 38.7867 54.0933 39.46 54.6 40.02C55.1067 40.58 55.82 40.9467 56.74 41.12V34.88C55.82 35.0533 55.1067 35.42 54.6 35.98ZM67.8938 31.1C67.6271 31.3667 67.3071 31.5 66.9338 31.5C66.5604 31.5 66.2338 31.3667 65.9538 31.1C65.6871 30.82 65.5538 30.4933 65.5538 30.12C65.5538 29.7467 65.6871 29.4267 65.9538 29.16C66.2204 28.88 66.5471 28.74 66.9338 28.74C67.3204 28.74 67.6471 28.88 67.9138 29.16C68.1804 29.4267 68.3138 29.7467 68.3138 30.12C68.3138 30.4933 68.1738 30.82 67.8938 31.1ZM65.8538 43V33H68.0138V43H65.8538ZM77.2617 33H79.4217V43H77.2617V39.02H72.6817V43H70.5217V33H72.6817V36.98H77.2617V33ZM89.848 33H92.008V43H89.848V41.56C89.0346 42.6933 87.868 43.26 86.348 43.26C84.9746 43.26 83.8013 42.7533 82.828 41.74C81.8546 40.7133 81.368 39.4667 81.368 38C81.368 36.52 81.8546 35.2733 82.828 34.26C83.8013 33.2467 84.9746 32.74 86.348 32.74C87.868 32.74 89.0346 33.3 89.848 34.42V33ZM84.428 40.3C85.028 40.9 85.7813 41.2 86.688 41.2C87.5946 41.2 88.348 40.9 88.948 40.3C89.548 39.6867 89.848 38.92 89.848 38C89.848 37.08 89.548 36.32 88.948 35.72C88.348 35.1067 87.5946 34.8 86.688 34.8C85.7813 34.8 85.028 35.1067 84.428 35.72C83.828 36.32 83.528 37.08 83.528 38C83.528 38.92 83.828 39.6867 84.428 40.3ZM101.266 33H103.426V43H101.266V39.02H96.6856V43H94.5256V33H96.6856V36.98H101.266V33ZM110.652 43.26C109.145 43.26 107.885 42.7533 106.872 41.74C105.872 40.7267 105.372 39.48 105.372 38C105.372 36.5067 105.872 35.26 106.872 34.26C107.885 33.2467 109.145 32.74 110.652 32.74C111.625 32.74 112.512 32.9733 113.312 33.44C114.112 33.9067 114.712 34.5333 115.112 35.32L113.252 36.4C113.025 35.92 112.679 35.5467 112.212 35.28C111.759 35 111.232 34.86 110.632 34.86C109.752 34.86 109.012 35.16 108.412 35.76C107.825 36.36 107.532 37.1067 107.532 38C107.532 38.8933 107.825 39.64 108.412 40.24C109.012 40.84 109.752 41.14 110.632 41.14C111.219 41.14 111.745 41 112.212 40.72C112.692 40.44 113.052 40.0667 113.292 39.6L115.152 40.66C114.725 41.46 114.112 42.0933 113.312 42.56C112.512 43.0267 111.625 43.26 110.652 43.26ZM124.012 33H125.672V43H123.552V36.64L118.432 43H116.772V33H118.892V39.34L124.012 33Z" fill="white"/>
</svg>