<svg width="26" height="24" viewBox="0 0 26 24" fill="none" xmlns="http://www.w3.org/2000/svg">
    <path d="M25.623 0.888765C25.5117 0.792614 25.3763 0.728685 25.2313 0.703877C25.0863 0.679069 24.9373 0.694324 24.8003 0.747995L1.41648 9.89915C1.13206 10.0104 0.891423 10.211 0.730708 10.4707C0.569992 10.7304 0.497875 11.0353 0.525186 11.3395C0.552497 11.6437 0.677763 11.9308 0.88217 12.1577C1.08658 12.3847 1.35909 12.5391 1.65879 12.598L7.90341 13.8245V20.7695C7.90353 21.0915 7.99987 21.4061 8.18006 21.6729C8.36025 21.9397 8.61606 22.1466 8.91467 22.2671C9.21328 22.3875 9.54105 22.4159 9.85593 22.3487C10.1708 22.2815 10.4584 22.1217 10.6819 21.8899L13.7557 18.7018L18.5534 22.9076C18.8463 23.1668 19.2238 23.31 19.6149 23.3103C19.7857 23.3099 19.9554 23.2831 20.118 23.2307C20.3845 23.1463 20.6243 22.9936 20.8134 22.7877C21.0025 22.5818 21.1343 22.33 21.1957 22.0572L25.8826 1.68146C25.9156 1.53821 25.9088 1.38869 25.8631 1.249C25.8173 1.10932 25.7343 0.984765 25.623 0.888765ZM1.90917 11.2353C1.90476 11.2234 1.90476 11.2103 1.90917 11.1984C1.91439 11.1944 1.92024 11.1912 1.92648 11.1891L20.3546 3.9753L8.43533 12.5138L1.92648 11.2399L1.90917 11.2353ZM9.68494 20.9276C9.65314 20.9606 9.61223 20.9834 9.56743 20.9931C9.52264 21.0027 9.47597 20.9988 9.4334 20.9819C9.39082 20.9649 9.35426 20.9357 9.32837 20.8978C9.30247 20.86 9.28843 20.8154 9.28802 20.7695V14.7822L12.7138 17.7822L9.68494 20.9276ZM19.8469 21.7445C19.8384 21.7835 19.8195 21.8196 19.7923 21.8488C19.7651 21.878 19.7306 21.8994 19.6923 21.9107C19.6532 21.9244 19.6111 21.9274 19.5705 21.9192C19.5299 21.9111 19.4923 21.8922 19.4615 21.8645L9.70802 13.3088L24.1726 2.94261L19.8469 21.7445Z" fill="#C3F4FF"/>
</svg>