<svg width="26" height="22" viewBox="0 0 26 22" fill="none" xmlns="http://www.w3.org/2000/svg">
    <path d="M25.1617 3.35159C25.1094 3.22501 25.0208 3.11678 24.907 3.04058C24.7932 2.96438 24.6594 2.92364 24.5224 2.92351H20.8763C20.4149 2.09152 19.7411 1.39683 18.9236 0.910329C18.1061 0.423827 17.1741 0.162936 16.2228 0.15428C15.5319 0.145426 14.8461 0.274787 14.2059 0.534761C13.5657 0.794734 12.9839 1.18007 12.4947 1.66813C11.9906 2.16276 11.5904 2.7532 11.3178 3.40472C11.0451 4.05624 10.9055 4.7557 10.9071 5.46197V6.4612C6.0609 5.30736 2.06859 1.32428 2.02244 1.28274C1.92945 1.1904 1.81217 1.12635 1.68423 1.09803C1.55628 1.06971 1.42292 1.07829 1.29966 1.12276C1.17639 1.16723 1.06828 1.24577 0.987887 1.34926C0.907494 1.45274 0.858124 1.57692 0.845513 1.70736C0.355129 7.15582 1.93244 10.7939 3.34244 12.887C4.07134 13.9834 4.96985 14.9571 6.00436 15.7716C4.21705 17.9639 1.23436 19.1051 1.20205 19.1177C1.10351 19.1542 1.01457 19.2126 0.941953 19.2886C0.869338 19.3645 0.814959 19.456 0.782937 19.556C0.750915 19.6561 0.74209 19.7621 0.75713 19.8661C0.77217 19.9701 0.81068 20.0693 0.869744 20.1562C0.983975 20.327 2.11244 21.8466 6.0609 21.8466C14.124 21.8466 20.8567 15.6158 21.5017 7.61505L25.0117 4.1062C25.1085 4.00936 25.1744 3.88597 25.2011 3.75165C25.2278 3.61733 25.2141 3.4781 25.1617 3.35159ZM20.3409 6.8189C20.2217 6.93785 20.1499 7.0962 20.139 7.26428C19.6682 14.665 13.4836 20.462 6.0609 20.462C4.44551 20.462 3.43474 20.1839 2.82321 19.9081C4.12705 19.2527 6.25244 17.9604 7.55974 16C7.61188 15.9216 7.64747 15.8334 7.66434 15.7407C7.6812 15.6481 7.67898 15.553 7.65782 15.4612C7.63644 15.3688 7.59633 15.2819 7.53996 15.2057C7.48359 15.1294 7.41217 15.0656 7.33013 15.0181C7.31513 15.0089 5.81513 14.1112 4.44551 12.0504C2.83013 9.61582 2.05821 6.66543 2.13782 3.25582C3.85474 4.70966 7.3959 7.30466 11.484 7.98659C11.5833 8.00337 11.6851 7.99829 11.7822 7.97169C11.8793 7.94509 11.9695 7.89761 12.0464 7.83258C12.1233 7.76754 12.1851 7.6865 12.2275 7.59513C12.2698 7.50375 12.2917 7.40423 12.2917 7.30351V5.46197C12.2906 4.93912 12.3941 4.42132 12.596 3.93903C12.7979 3.45673 13.0942 3.01966 13.4674 2.65351C13.8268 2.29469 14.2542 2.01126 14.7246 1.81986C15.195 1.62846 15.6989 1.53293 16.2067 1.5389C17.7563 1.55851 19.2067 2.50466 19.8113 3.89274C19.8652 4.01622 19.9539 4.12129 20.0666 4.19507C20.1794 4.26886 20.3112 4.30815 20.4459 4.30813H22.8505L20.3409 6.8189Z" fill="#C3F4FF"/>
</svg>