<svg width="25" height="24" viewBox="0 0 25 24" fill="none" xmlns="http://www.w3.org/2000/svg">
    <path d="M12.0571 6.46154C10.9617 6.46154 9.89092 6.78636 8.98012 7.39494C8.06933 8.00351 7.35945 8.8685 6.94026 9.88052C6.52107 10.8925 6.41139 12.0061 6.62509 13.0805C6.83879 14.1549 7.36628 15.1417 8.14085 15.9163C8.91541 16.6909 9.90227 17.2183 10.9766 17.432C12.051 17.6457 13.1646 17.5361 14.1766 17.1169C15.1886 16.6977 16.0536 15.9878 16.6622 15.077C17.2708 14.1662 17.5956 13.0954 17.5956 12C17.5941 10.5316 17.0101 9.12374 15.9717 8.0854C14.9334 7.04707 13.5256 6.46307 12.0571 6.46154ZM12.0571 15.6923C11.3269 15.6923 10.613 15.4758 10.0058 15.07C9.3986 14.6643 8.92534 14.0877 8.64588 13.413C8.36642 12.7383 8.2933 11.9959 8.43577 11.2797C8.57824 10.5634 8.92989 9.90552 9.44627 9.38914C9.96265 8.87277 10.6206 8.52111 11.3368 8.37864C12.053 8.23617 12.7954 8.30929 13.4701 8.58875C14.1448 8.86821 14.7215 9.34147 15.1272 9.94866C15.5329 10.5559 15.7494 11.2697 15.7494 12C15.7494 12.9793 15.3604 13.9184 14.668 14.6109C13.9755 15.3033 13.0364 15.6923 12.0571 15.6923ZM17.5956 0H6.51867C4.80552 0.00183257 3.16307 0.683188 1.95169 1.89456C0.740317 3.10594 0.0589615 4.74839 0.0571289 6.46154V17.5385C0.0589615 19.2516 0.740317 20.8941 1.95169 22.1054C3.16307 23.3168 4.80552 23.9982 6.51867 24H17.5956C19.3087 23.9982 20.9512 23.3168 22.1626 22.1054C23.3739 20.8941 24.0553 19.2516 24.0571 17.5385V6.46154C24.0553 4.74839 23.3739 3.10594 22.1626 1.89456C20.9512 0.683188 19.3087 0.00183257 17.5956 0ZM22.211 17.5385C22.211 18.7625 21.7247 19.9365 20.8592 20.802C19.9936 21.6676 18.8197 22.1538 17.5956 22.1538H6.51867C5.29459 22.1538 4.12065 21.6676 3.2551 20.802C2.38955 19.9365 1.90328 18.7625 1.90328 17.5385V6.46154C1.90328 5.23746 2.38955 4.06352 3.2551 3.19797C4.12065 2.33242 5.29459 1.84615 6.51867 1.84615H17.5956C18.8197 1.84615 19.9936 2.33242 20.8592 3.19797C21.7247 4.06352 22.211 5.23746 22.211 6.46154V17.5385ZM19.4417 6C19.4417 6.27385 19.3605 6.54155 19.2084 6.76925C19.0563 6.99695 18.84 7.17442 18.587 7.27922C18.334 7.38402 18.0556 7.41144 17.787 7.35801C17.5184 7.30458 17.2717 7.17271 17.0781 6.97907C16.8844 6.78543 16.7525 6.53871 16.6991 6.27013C16.6457 6.00154 16.6731 5.72314 16.7779 5.47013C16.8827 5.21713 17.0602 5.00088 17.2879 4.84873C17.5156 4.69659 17.7833 4.61538 18.0571 4.61538C18.4244 4.61538 18.7765 4.76126 19.0362 5.02093C19.2959 5.28059 19.4417 5.63278 19.4417 6Z" fill="#C3F4FF"/>
</svg>